REM DIRINDEX 1\2,1\3,1\4,1\5,1\6
REM DIRNAME folder01,folder02,folder03,folder04,folder05,folder06
TITLE ""
FILE "Disc3Track29.mp3" MP3
  TRACK 01 AUDIO
    TITLE "2:cjc030_04892"
    INDEX 01 00:00:00
  TRACK 02 AUDIO
    TITLE "0:"
    INDEX 01 00:04:38
  TRACK 03 AUDIO
    TITLE "3:cjc030_04893"
    INDEX 01 00:04:74
  TRACK 04 AUDIO
    TITLE "0:"
    INDEX 01 00:06:12
  TRACK 05 AUDIO
    TITLE "4:cjc030_04894"
    INDEX 01 00:06:18
  TRACK 06 AUDIO
    TITLE "0:"
    INDEX 01 00:09:32
  TRACK 07 AUDIO
    TITLE "5:cjc030_04895"
    INDEX 01 00:09:42
  TRACK 08 AUDIO
    TITLE "0:"
    INDEX 01 00:10:53
  TRACK 09 AUDIO
    TITLE "6:cjc030_04896"
    INDEX 01 00:10:68
  TRACK 10 AUDIO
    TITLE "0:"
    INDEX 01 00:15:48
  TRACK 11 AUDIO
    TITLE "3:cjc030_04897"
    INDEX 01 00:16:22
  TRACK 12 AUDIO
    TITLE "0:"
    INDEX 01 00:17:35
  TRACK 13 AUDIO
    TITLE "4:cjc030_04898"
    INDEX 01 00:17:43
  TRACK 14 AUDIO
    TITLE "0:"
    INDEX 01 00:19:20
  TRACK 15 AUDIO
    TITLE "5:cjc030_04899"
    INDEX 01 00:19:28
  TRACK 16 AUDIO
    TITLE "0:"
    INDEX 01 00:20:43
  TRACK 17 AUDIO
    TITLE "3:cjc030_04900"
    INDEX 01 00:21:27
  TRACK 18 AUDIO
    TITLE "0:"
    INDEX 01 00:22:38
  TRACK 19 AUDIO
    TITLE "4:cjc030_04901"
    INDEX 01 00:22:50
  TRACK 20 AUDIO
    TITLE "0:"
    INDEX 01 00:23:44
  TRACK 21 AUDIO
    TITLE "5:cjc030_04902"
    INDEX 01 00:23:53
  TRACK 22 AUDIO
    TITLE "0:"
    INDEX 01 00:24:65
  TRACK 23 AUDIO
    TITLE "3:cjc030_04903"
    INDEX 01 00:25:48
  TRACK 24 AUDIO
    TITLE "0:"
    INDEX 01 00:26:64
  TRACK 25 AUDIO
    TITLE "4:cjc030_04904"
    INDEX 01 00:26:73
  TRACK 26 AUDIO
    TITLE "0:"
    INDEX 01 00:28:08
  TRACK 27 AUDIO
    TITLE "5:cjc030_04905"
    INDEX 01 00:28:15
  TRACK 28 AUDIO
    TITLE "0:"
    INDEX 01 00:29:29
  TRACK 29 AUDIO
    TITLE "3:cjc030_04906"
    INDEX 01 00:30:10
  TRACK 30 AUDIO
    TITLE "0:"
    INDEX 01 00:31:26
  TRACK 31 AUDIO
    TITLE "4:cjc030_04907"
    INDEX 01 00:31:33
  TRACK 32 AUDIO
    TITLE "0:"
    INDEX 01 00:35:02
  TRACK 33 AUDIO
    TITLE "5:cjc030_04908"
    INDEX 01 00:35:10
  TRACK 34 AUDIO
    TITLE "0:"
    INDEX 01 00:36:23
  TRACK 35 AUDIO
    TITLE "6:cjc030_04909"
    INDEX 01 00:36:36
  TRACK 36 AUDIO
    TITLE "0:"
    INDEX 01 00:40:40
  TRACK 37 AUDIO
    TITLE "3:cjc030_04910"
    INDEX 01 00:41:14
  TRACK 38 AUDIO
    TITLE "0:"
    INDEX 01 00:42:27
  TRACK 39 AUDIO
    TITLE "4:cjc030_04911"
    INDEX 01 00:42:39
  TRACK 40 AUDIO
    TITLE "0:"
    INDEX 01 00:44:67
  TRACK 41 AUDIO
    TITLE "5:cjc030_04912"
    INDEX 01 00:45:02
  TRACK 42 AUDIO
    TITLE "0:"
    INDEX 01 00:46:15
  TRACK 43 AUDIO
    TITLE "3:cjc030_04913"
    INDEX 01 00:46:64
  TRACK 44 AUDIO
    TITLE "0:"
    INDEX 01 00:47:72
  TRACK 45 AUDIO
    TITLE "4:cjc030_04914"
    INDEX 01 00:48:08
  TRACK 46 AUDIO
    TITLE "0:"
    INDEX 01 00:49:02
  TRACK 47 AUDIO
    TITLE "5:cjc030_04915"
    INDEX 01 00:49:08
  TRACK 48 AUDIO
    TITLE "0:"
    INDEX 01 00:50:19
  TRACK 49 AUDIO
    TITLE "6:cjc030_04916"
    INDEX 01 00:50:33
  TRACK 50 AUDIO
    TITLE "0:"
    INDEX 01 00:54:40
  TRACK 51 AUDIO
    TITLE "3:cjc030_04917"
    INDEX 01 00:55:10
  TRACK 52 AUDIO
    TITLE "0:"
    INDEX 01 00:56:24
  TRACK 53 AUDIO
    TITLE "4:cjc030_04918"
    INDEX 01 00:56:33
  TRACK 54 AUDIO
    TITLE "0:"
    INDEX 01 00:58:34
  TRACK 55 AUDIO
    TITLE "5:cjc030_04919"
    INDEX 01 00:58:42
  TRACK 56 AUDIO
    TITLE "0:"
    INDEX 01 00:59:55
  TRACK 57 AUDIO
    TITLE "3:cjc030_04920"
    INDEX 01 01:00:35
  TRACK 58 AUDIO
    TITLE "0:"
    INDEX 01 01:01:44
  TRACK 59 AUDIO
    TITLE "4:cjc030_04921"
    INDEX 01 01:01:54
  TRACK 60 AUDIO
    TITLE "0:"
    INDEX 01 01:02:55
  TRACK 61 AUDIO
    TITLE "5:cjc030_04922"
    INDEX 01 01:02:65
  TRACK 62 AUDIO
    TITLE "0:"
    INDEX 01 01:04:01
  TRACK 63 AUDIO
    TITLE "6:cjc030_04923"
    INDEX 01 01:04:13
  TRACK 64 AUDIO
    TITLE "0:"
    INDEX 01 01:11:25
  TRACK 65 AUDIO
    TITLE "3:cjc030_04924"
    INDEX 01 01:11:74
  TRACK 66 AUDIO
    TITLE "0:"
    INDEX 01 01:13:12
  TRACK 67 AUDIO
    TITLE "4:cjc030_04925"
    INDEX 01 01:13:18
  TRACK 68 AUDIO
    TITLE "0:"
    INDEX 01 01:14:23
  TRACK 69 AUDIO
    TITLE "5:cjc030_04926"
    INDEX 01 01:14:33
  TRACK 70 AUDIO
    TITLE "0:"
    INDEX 01 01:15:46
  TRACK 71 AUDIO
    TITLE "3:cjc030_04927"
    INDEX 01 01:16:26
  TRACK 72 AUDIO
    TITLE "0:"
    INDEX 01 01:17:43
  TRACK 73 AUDIO
    TITLE "4:cjc030_04928"
    INDEX 01 01:17:51
  TRACK 74 AUDIO
    TITLE "0:"
    INDEX 01 01:19:11
  TRACK 75 AUDIO
    TITLE "5:cjc030_04929"
    INDEX 01 01:19:17
  TRACK 76 AUDIO
    TITLE "0:"
    INDEX 01 01:20:32
  TRACK 77 AUDIO
    TITLE "3:cjc030_04930"
    INDEX 01 01:21:08
  TRACK 78 AUDIO
    TITLE "0:"
    INDEX 01 01:22:23
  TRACK 79 AUDIO
    TITLE "4:cjc030_04931"
    INDEX 01 01:22:31
  TRACK 80 AUDIO
    TITLE "0:"
    INDEX 01 01:23:67
  TRACK 81 AUDIO
    TITLE "5:cjc030_04932"
    INDEX 01 01:24:02
  TRACK 82 AUDIO
    TITLE "0:"
    INDEX 01 01:25:17
